<svg xmlns="http://www.w3.org/2000/svg" xmlns:xlink="http://www.w3.org/1999/xlink" aria-hidden="true" role="img" width="1em" height="1em" preserveAspectRatio="xMidYMid meet" viewBox="0 0 20 20"><g fill="none"><path fill-rule="evenodd" clip-rule="evenodd" d="M3 5a1 1 0 0 1 1-1h12a1 1 0 1 1 0 2H4a1 1 0 0 1-1-1z" fill="white"/><path fill-rule="evenodd" clip-rule="evenodd" d="M3 10a1 1 0 0 1 1-1h12a1 1 0 1 1 0 2H4a1 1 0 0 1-1-1z" fill="white"/><path fill-rule="evenodd" clip-rule="evenodd" d="M3 15a1 1 0 0 1 1-1h6a1 1 0 1 1 0 2H4a1 1 0 0 1-1-1z" fill="white"/></g></svg>